<?xml version="1.0" encoding="UTF-8" standalone="no"?>
<svg
   xmlns:dc="http://purl.org/dc/elements/1.1/"
   xmlns:cc="http://creativecommons.org/ns#"
   xmlns:rdf="http://www.w3.org/1999/02/22-rdf-syntax-ns#"
   xmlns:svg="http://www.w3.org/2000/svg"
   xmlns="http://www.w3.org/2000/svg"
   viewBox="0 0 533.33331 533.33331"
   height="533.33331"
   width="533.33331"
   id="svg64"
   version="1.1">
  <metadata
     id="metadata70">
    <rdf:RDF>
      <cc:Work
         rdf:about="">
        <dc:format>image/svg+xml</dc:format>
        <dc:type
           rdf:resource="http://purl.org/dc/dcmitype/StillImage" />
        <dc:title></dc:title>
      </cc:Work>
    </rdf:RDF>
  </metadata>
  <defs
     id="defs68" />
  <path
     id="path74"
     d="m 240.00719,531.88192 c -29.88567,-2.87155 -61.8932,-12.03188 -90.1795,-25.80877 C 17.624085,441.68317 -37.298755,282.10932 27.352005,150.23 c 14.23521,-29.03801 31.89831,-53.087766 55.60722,-75.71375 102.784195,-98.089429 264.630665,-98.089429 367.414825,0 84.2608,80.41211 106.6813,204.7889 55.7043,309.01747 -49.072,100.33337 -154.4289,159.07522 -266.07116,148.3482 z m 71.07576,-38.30159 c 47.42754,-10.26147 84.80817,-30.24124 118.00624,-63.07379 33.93976,-33.56612 54.37956,-71.90425 65.15296,-122.20536 1.9362,-9.04 2.4236,-17.34863 2.4218,-41.27805 0,-26.43277 -0.3723,-31.68422 -3.1442,-44.60691 -10.1614,-47.37294 -31.4253,-86.44034 -65.03053,-119.47863 -32.97041,-32.414154 -70.68597,-52.522987 -117.1559,-62.464097 -12.94,-2.768197 -18.19849,-3.137852 -44.66667,-3.13992 -31.27702,-0.0024 -37.85078,0.78888 -62.47254,7.52022 C 128.84713,65.452904 64.826415,129.38799 44.199705,204.63416 c -6.73929,24.58495 -7.53264,31.15584 -7.53264,62.38897 0,31.23314 0.79335,37.80404 7.53264,62.38897 3.95098,14.41315 13.20802,36.62471 21.06493,50.54368 23.66895,41.93092 65.946205,80.3027 108.192345,98.19778 20.10708,8.51718 43.6825,15.09557 65.87634,18.38183 2.2,0.32575 16.3,0.43102 31.33333,0.23394 21.88616,-0.28694 29.9406,-0.92247 40.4163,-3.189 z M 140.42974,324.90961 c -5.79689,-4.56323 -7.90925,-11.27992 -5.80043,-18.44362 1.36432,-4.63465 10.46279,-14.36563 58.49316,-62.5596 31.28263,-31.3892 59.21755,-58.80247 62.07757,-60.91838 7.24282,-5.35845 15.69041,-5.35845 22.93323,0 2.86002,2.11591 30.77773,29.52918 62.03934,60.91838 61.61797,61.86945 61.75513,62.03916 58.61084,72.51983 -2.27843,7.59454 -8.56333,11.84821 -17.50608,11.84821 h -7.13757 l -53.73657,-53.55739 -53.73658,-53.55739 -53.73657,53.55739 -53.73657,53.55739 -7.26342,-0.0148 c -5.72063,-0.012 -8.16338,-0.72321 -11.50035,-3.35004 z"
     style="fill:#ffffff;stroke-width:1.33244109" />
</svg>
